<?xml version="1.0" standalone="no"?>
<!DOCTYPE svg PUBLIC "-//W3C//DTD SVG 20010904//EN"
 "http://www.w3.org/TR/2001/REC-SVG-20010904/DTD/svg10.dtd">
<svg version="1.0" xmlns="http://www.w3.org/2000/svg"
 width="512.000000pt" height="512.000000pt" viewBox="0 0 512.000000 512.000000"
 preserveAspectRatio="xMidYMid meet">

<g transform="translate(0.000000,512.000000) scale(0.100000,-0.100000)"
fill="#ffffff" stroke="none">
<path d="M1593 3782 c-12 -2 -33 -15 -47 -29 l-26 -26 0 -1167 0 -1167 25 -26
c14 -13 37 -27 50 -30 33 -6 87 22 102 53 10 20 12 269 10 1181 -2 1109 -3
1158 -20 1177 -22 24 -63 39 -94 34z"/>
<path d="M3864 3782 c-12 -2 -32 -14 -45 -28 l-24 -26 0 -1169 0 -1169 25 -24
c39 -39 95 -38 134 0 l26 27 0 1167 0 1167 -25 26 c-26 26 -54 35 -91 29z"/>
<path d="M453 3432 c-12 -2 -34 -17 -48 -33 l-25 -31 0 -809 0 -809 28 -31
c39 -44 95 -44 134 0 l28 31 0 809 0 809 -25 30 c-25 30 -52 40 -92 34z"/>
<path d="M1954 3310 c-56 -23 -54 5 -54 -752 l0 -697 24 -28 c34 -39 95 -39
134 0 l27 27 0 700 0 700 -25 25 c-28 28 -74 39 -106 25z"/>
<path d="M3475 3311 c-11 -5 -29 -19 -40 -31 -20 -22 -20 -36 -20 -720 l0
-698 24 -26 c13 -14 36 -28 52 -31 32 -7 83 16 99 44 6 13 10 256 10 711 0
455 -4 698 -10 711 -11 20 -60 49 -82 48 -7 0 -22 -4 -33 -8z"/>
<path d="M820 3259 c-14 -5 -33 -20 -42 -32 -16 -20 -18 -71 -18 -665 0 -711
-3 -680 64 -702 39 -12 72 -3 101 30 20 22 20 36 20 671 l0 649 -25 24 c-30
30 -66 39 -100 25z"/>
<path d="M4235 3261 c-11 -5 -29 -19 -40 -31 -20 -22 -20 -36 -20 -670 0 -634
0 -648 20 -670 29 -33 62 -42 101 -30 67 22 64 -9 64 700 0 706 3 677 -62 699
-35 13 -36 13 -63 2z"/>
<path d="M2335 3151 c-11 -5 -29 -19 -40 -31 -19 -22 -20 -36 -20 -561 l0
-539 27 -27 c39 -39 100 -39 134 0 l24 28 0 539 0 539 -22 25 c-25 28 -72 40
-103 27z"/>
<path d="M3095 3151 c-11 -5 -29 -19 -40 -31 -19 -22 -20 -36 -20 -561 l0
-539 27 -27 c39 -39 100 -39 134 0 l24 28 0 539 0 539 -22 25 c-25 28 -72 40
-103 27z"/>
<path d="M33 2926 l-28 -24 0 -342 0 -342 28 -24 c40 -34 90 -32 128 5 l29 29
0 332 0 332 -29 29 c-38 37 -88 39 -128 5z"/>
<path d="M1169 2921 l-29 -29 0 -332 0 -332 29 -29 c50 -50 127 -33 150 33 7
19 11 142 11 328 0 186 -4 309 -11 328 -23 66 -100 83 -150 33z"/>
<path d="M2691 2924 l-31 -26 0 -338 0 -338 31 -26 c53 -45 126 -27 148 36 15
42 15 614 0 656 -22 63 -95 81 -148 36z"/>
<path d="M4583 2926 l-28 -24 0 -342 0 -342 28 -24 c40 -34 90 -32 128 5 l29
29 0 332 0 332 -29 29 c-38 37 -88 39 -128 5z"/>
<path d="M4959 2921 l-29 -29 0 -332 0 -332 29 -29 c38 -37 88 -39 128 -5 l28
24 0 342 0 342 -28 24 c-40 34 -90 32 -128 -5z"/>
</g>
</svg>
